<svg width="266" height="16" viewBox="0 0 266 16" fill="none" xmlns="http://www.w3.org/2000/svg">
<path d="M98.2217 8.79199C98.2217 9.44303 98.0719 10.0225 97.7725 10.5303C97.4762 11.0381 97.0661 11.432 96.542 11.7119C96.0212 11.9919 95.4271 12.1318 94.7598 12.1318C94.099 12.1318 93.5065 11.9919 92.9824 11.7119C92.4616 11.432 92.0547 11.0397 91.7617 10.5352C91.4688 10.0306 91.3223 9.4528 91.3223 8.80176C91.3223 8.14746 91.4688 7.56803 91.7617 7.06348C92.0547 6.55566 92.4616 6.16016 92.9824 5.87695C93.5065 5.59375 94.1022 5.45215 94.7695 5.45215C95.4303 5.45215 96.0212 5.59212 96.542 5.87207C97.0661 6.15202 97.4762 6.5459 97.7725 7.05371C98.0719 7.55827 98.2217 8.1377 98.2217 8.79199ZM96.6689 8.79199C96.6689 8.40462 96.5892 8.0612 96.4297 7.76172C96.2702 7.45898 96.0472 7.22461 95.7607 7.05859C95.4743 6.89258 95.1471 6.80957 94.7793 6.80957C94.4049 6.80957 94.0729 6.89258 93.7832 7.05859C93.4935 7.22461 93.2673 7.45898 93.1045 7.76172C92.9417 8.0612 92.8604 8.40788 92.8604 8.80176C92.8604 9.18913 92.9401 9.53255 93.0996 9.83203C93.2591 10.1315 93.4837 10.3626 93.7734 10.5254C94.0632 10.6882 94.3952 10.7695 94.7695 10.7695C95.1374 10.7695 95.4661 10.6865 95.7559 10.5205C96.0456 10.3545 96.2702 10.1217 96.4297 9.82227C96.5892 9.51953 96.6689 9.17611 96.6689 8.79199ZM105.947 5.58887C106.647 5.58887 107.197 5.78255 107.598 6.16992C107.998 6.55729 108.198 7.08138 108.198 7.74219C108.198 8.16211 108.109 8.5332 107.93 8.85547C107.751 9.17773 107.489 9.43001 107.144 9.6123C106.802 9.79134 106.393 9.88086 105.918 9.88086H104.688V12H103.228V5.58887H105.947ZM105.649 8.63086C105.994 8.63086 106.248 8.54134 106.411 8.3623C106.577 8.18001 106.66 7.96191 106.66 7.70801C106.66 7.48665 106.577 7.28971 106.411 7.11719C106.248 6.94466 105.998 6.8584 105.659 6.8584H104.688V8.63086H105.649ZM114.537 6.91211V8.12793H117.008V9.40234H114.537V10.6816H117.311V12H113.077V5.58887H117.311V6.91211H114.537ZM127.937 5.58887V12H126.579L123.947 8.11816V12H122.507V5.58887H123.869L126.486 9.48047V5.58887H127.937ZM143.559 8.81152C143.897 8.93197 144.167 9.11589 144.369 9.36328C144.574 9.60742 144.677 9.92318 144.677 10.3105C144.677 10.8574 144.473 11.2757 144.066 11.5654C143.66 11.8551 143.103 12 142.396 12H139.687V5.58887H142.406C143.093 5.58887 143.632 5.75163 144.022 6.07715C144.413 6.39941 144.608 6.82747 144.608 7.36133C144.608 7.73568 144.514 8.04492 144.325 8.28906C144.14 8.52995 143.884 8.7041 143.559 8.81152ZM141.127 6.81934V8.2793H142.338C142.605 8.2793 142.808 8.20605 142.948 8.05957C143.088 7.91309 143.158 7.74707 143.158 7.56152C143.158 7.37598 143.09 7.20671 142.953 7.05371C142.816 6.89746 142.611 6.81934 142.338 6.81934H141.127ZM142.416 10.7695C142.663 10.7695 142.862 10.7061 143.012 10.5791C143.161 10.4521 143.236 10.2829 143.236 10.0713C143.236 9.86621 143.158 9.69368 143.002 9.55371C142.846 9.41048 142.65 9.33887 142.416 9.33887H141.127V10.7695H142.416ZM151.143 6.91211V8.12793H153.613V9.40234H151.143V10.6816H153.916V12H149.683V5.58887H153.916V6.91211H151.143ZM164.029 6.91211H162.12V12H160.66V6.91211H158.731V5.58887H164.029V6.91211ZM170.061 5.58887H171.472L173.85 12H172.302L171.828 10.6816H169.67L169.191 12H167.668L170.061 5.58887ZM171.408 9.46094L171.159 8.76758C171.101 8.58854 171.014 8.31999 170.9 7.96191L170.769 7.56152C170.749 7.64941 170.697 7.81217 170.612 8.0498C170.531 8.28418 170.443 8.52344 170.349 8.76758L170.09 9.46094H171.408Z" fill="white"/>
<line x1="81" y1="9.5" x2="4.37114e-08" y2="9.50001" stroke="white" stroke-opacity="0.4"/>
<line x1="266" y1="9.5" x2="185" y2="9.50001" stroke="white" stroke-opacity="0.4"/>
</svg>
