<svg width="30" height="30" viewBox="0 0 30 30" fill="none" xmlns="http://www.w3.org/2000/svg">
<path d="M29.8911 14.7456C29.8911 6.60308 23.288 0 15.1455 0C7.00298 0 0.399902 6.60308 0.399902 14.7456C0.399902 22.8881 7.00298 29.4912 15.1455 29.4912C15.2321 29.4912 15.3183 29.4894 15.4047 29.4878V18.009H12.2367V14.317H15.4047V11.6001C15.4047 8.4492 17.3282 6.73425 20.1389 6.73425C21.4849 6.73425 22.6418 6.8346 22.9791 6.87937V10.1725H21.041C19.5119 10.1725 19.2158 10.8992 19.2158 11.9655V14.317H22.872L22.3955 18.009H19.2158V28.9215C25.3792 27.1546 29.8911 21.4762 29.8911 14.7456Z" fill="#8FA0B2"/>
</svg>
