<svg width="31" height="30" viewBox="0 0 31 30" fill="none" xmlns="http://www.w3.org/2000/svg">
<path d="M15.3457 0.838379C7.19875 0.838379 0.600098 7.32644 0.600098 15.3284C0.600098 21.7317 4.82471 27.1617 10.6824 29.0762C11.4197 29.2126 11.69 28.7641 11.69 28.3795C11.69 28.0354 11.6777 27.1236 11.6716 25.9157C7.56985 26.7894 6.70478 23.9718 6.70478 23.9718C6.03385 22.2994 5.06433 21.8521 5.06433 21.8521C3.72862 20.9538 5.16755 20.9723 5.16755 20.9723C6.64825 21.073 7.42608 22.4653 7.42608 22.4653C8.7409 24.6808 10.8778 24.0406 11.7207 23.6707C11.8534 22.7331 12.2331 22.0954 12.6546 21.7329C9.37987 21.3704 5.938 20.1244 5.938 14.5727C5.938 12.9912 6.5094 11.6985 7.45557 10.6848C7.28969 10.3186 6.79202 8.84524 7.5846 6.84967C7.5846 6.84967 8.81954 6.46137 11.6396 8.33529C12.8193 8.01334 14.0727 7.8536 15.326 7.84623C16.5794 7.8536 17.8328 8.01334 19.0124 8.33529C21.8141 6.46137 23.049 6.84967 23.049 6.84967C23.8416 8.84524 23.344 10.3186 23.1965 10.6848C24.1365 11.6985 24.7079 12.9912 24.7079 14.5727C24.7079 20.1391 21.2611 21.3643 17.9802 21.7206C18.4963 22.1556 18.9756 23.044 18.9756 24.4018C18.9756 26.3409 18.9571 27.899 18.9571 28.3696C18.9571 28.7493 19.2152 29.2028 19.9709 29.0578C25.8704 27.1556 30.0913 21.7218 30.0913 15.3284C30.0913 7.32644 23.489 0.838379 15.3457 0.838379V0.838379Z" fill="#8FA0B2"/>
</svg>
