<svg width="186" height="82" viewBox="0 0 186 82" fill="none" xmlns="http://www.w3.org/2000/svg">
<path fill-rule="evenodd" clip-rule="evenodd" d="M1.28235 45.7335C4.0083 66.4805 21.6887 81.9942 42.614 82C42.6127 82 42.6115 82 42.6103 82H42.615C42.6147 82 42.6143 82 42.614 82C58.5767 81.9981 73.1373 72.8823 80.1121 58.5238C87.0875 44.1642 85.2511 27.0822 75.383 14.5334C69.8005 7.45767 62.0865 2.36923 53.3847 0.0224075C53.1201 -0.0463055 52.8406 0.0565276 52.6836 0.280373L51.101 2.54667C50.9525 2.75922 50.9444 3.03967 51.0804 3.26043C53.6373 7.38005 52.8599 12.7418 49.2382 15.9656C49.0706 16.1165 48.9938 16.3438 49.0357 16.5654L49.5263 19.1862C49.5702 19.4157 49.733 19.6045 49.9536 19.6816C58.6827 22.7811 64.5115 31.0447 64.5025 40.3077C64.5025 52.2992 54.8074 62.0702 42.8445 62.1921C31.0778 62.3123 21.2419 52.9955 20.7497 41.2383C20.3335 31.6402 26.2303 22.8944 35.2844 19.6816C35.5048 19.6037 35.667 19.4144 35.7101 19.1846L36.196 16.5638C36.2388 16.3422 36.1618 16.1143 35.9934 15.964C32.3716 12.7413 31.5928 7.38044 34.1481 3.26043C34.2849 3.0399 34.2768 2.75895 34.1275 2.54667L32.5449 0.280373C32.3883 0.0559362 32.1088 -0.0475581 31.8438 0.0208249C11.6297 5.4315 -1.44365 24.9861 1.28235 45.7335ZM12.9205 16.9532C17.1695 11.5723 22.7918 7.43768 29.1945 4.98548H29.1961C28.1079 9.13839 28.9986 13.5611 31.6095 16.969C22.5743 21.2261 16.8117 30.3198 16.82 40.3077C16.82 54.5322 28.3921 66.1043 42.6166 66.1043C56.8411 66.1043 68.4131 54.5322 68.4131 40.3077C68.4213 30.3203 62.6596 21.2269 53.6252 16.969C56.2361 13.5611 57.1269 9.13839 56.0387 4.98548C62.4423 7.43681 68.0653 11.5715 72.3143 16.9532C77.5776 23.5969 80.4275 31.8318 80.3966 40.3077C80.399 56.8541 69.6345 71.4769 53.8346 76.3905C38.0346 81.3041 20.8757 75.3651 11.4938 61.7356C2.11189 48.1062 2.69007 29.9578 12.9205 16.9532Z" fill="#2362FB"/>
<path d="M98.915 21.9954H101.917V36.5206H98.915V21.9954Z" fill="#2362FB"/>
<path fill-rule="evenodd" clip-rule="evenodd" d="M101.944 18.7842C101.545 19.2082 100.982 19.4389 100.4 19.4173V19.4205C99.8321 19.4286 99.2855 19.2068 98.8842 18.8056C98.4829 18.4043 98.2611 17.8577 98.2693 17.2903C98.26 16.7349 98.4839 16.2011 98.8865 15.8184C99.746 15.0238 101.072 15.0238 101.931 15.8184C102.324 16.2057 102.54 16.7373 102.53 17.2887C102.537 17.8446 102.327 18.3814 101.944 18.7842ZM125.87 36.538H122.897L122.901 27.5551C122.901 26.4124 122.636 25.5626 122.122 25.0229C121.608 24.4832 120.883 24.2094 119.97 24.2094C118.976 24.2094 118.18 24.5481 117.604 25.2128C117.015 25.8963 116.702 26.7738 116.724 27.6753V36.538H113.752V27.5472C113.752 26.5105 113.487 25.6765 112.96 25.0862C112.433 24.4959 111.707 24.2078 110.757 24.2078C109.877 24.1768 109.031 24.5457 108.455 25.2112C107.87 25.8845 107.557 26.7508 107.575 27.6421V36.5348H104.568V21.9748H107.269L107.427 23.4735C107.834 22.9308 108.356 22.4844 108.955 22.1663C109.726 21.7551 110.588 21.5429 111.462 21.5491C112.492 21.5314 113.506 21.811 114.381 22.3546C115.094 22.7967 115.668 23.4293 116.04 24.1809C116.431 23.4171 117.025 22.7763 117.757 22.3293C118.627 21.8038 119.626 21.5335 120.642 21.5491C122.177 21.5491 123.445 22.0238 124.412 22.9639C125.379 23.904 125.87 25.2524 125.87 26.9663V36.538ZM131.288 34.7591C131.789 35.3896 132.429 35.8956 133.158 36.2373C134.155 36.7011 135.244 36.9327 136.343 36.9146C137.621 36.9332 138.88 36.6015 139.983 35.9556C141.06 35.3067 141.929 34.3647 142.49 33.2398C143.102 32.0058 143.41 30.6432 143.387 29.2659C143.411 27.8758 143.103 26.5001 142.49 25.2524C141.933 24.1292 141.072 23.1853 140.004 22.5287C138.904 21.8839 137.648 21.5553 136.373 21.5791C135.204 21.5642 134.051 21.8504 133.025 22.41C132.237 22.8296 131.562 23.4314 131.054 24.1651L130.866 22.0033H128.348V42.8557H131.288V34.7591ZM131.493 29.3482C131.493 30.8406 131.899 32.0323 132.699 32.898C133.495 33.7573 134.544 34.1925 135.886 34.1925C137.228 34.1925 138.311 33.7383 139.127 32.8315C139.944 31.9247 140.358 30.725 140.358 29.2643C140.358 27.7735 139.941 26.5659 139.129 25.6828C138.317 24.7997 137.255 24.3519 135.918 24.3519C134.58 24.3519 133.501 24.8029 132.7 25.7002C131.899 26.5976 131.493 27.8257 131.493 29.3482ZM155.238 36.117C156.002 35.717 156.661 35.1435 157.163 34.4426V36.538H160.011V22.0128H157.479L157.274 23.9879C156.756 23.2929 156.086 22.7265 155.314 22.3325C153.105 21.2696 150.517 21.3499 148.378 22.5477C147.303 23.2013 146.434 24.1448 145.871 25.2698C144.677 27.8036 144.662 30.7354 145.831 33.2809C146.374 34.3908 147.221 35.3237 148.273 35.9714C149.356 36.6179 150.597 36.95 151.858 36.9304C153.035 36.948 154.198 36.6682 155.238 36.117ZM155.694 32.8299C156.519 31.9373 156.938 30.7108 156.938 29.1899C156.938 27.7197 156.519 26.5232 155.708 25.6512C154.898 24.7792 153.815 24.336 152.497 24.336C151.139 24.336 150.046 24.7823 149.24 25.6797C148.435 26.577 148.025 27.7782 148.025 29.2485C148.025 30.7187 148.438 31.9294 149.24 32.8252C150.042 33.7209 151.093 34.1751 152.434 34.1751C153.774 34.1751 154.869 33.7225 155.694 32.8299ZM165.463 35.9999C166.673 36.6502 168.031 36.9772 169.404 36.9494C171.213 36.9494 172.777 36.4588 174.054 35.4919C175.306 34.569 176.145 33.1903 176.388 31.654L176.423 31.4625H173.359L173.329 31.5907C173.151 32.3853 172.667 33.0778 171.982 33.5183C171.259 34.0121 170.369 34.2606 169.341 34.2606C167.961 34.2606 166.866 33.8064 166.085 32.9106C165.305 32.0149 164.9 30.7947 164.9 29.3007C164.9 27.7481 165.313 26.5105 166.128 25.6243C166.943 24.738 168.027 24.2949 169.341 24.2949C170.369 24.2949 171.254 24.5386 171.966 25.0213C172.66 25.4788 173.149 26.1874 173.331 26.998L173.361 27.1246H176.42L176.388 26.9331C176.175 25.3758 175.341 23.971 174.076 23.0383C172.81 22.0887 171.227 21.606 169.372 21.606C168.013 21.5813 166.671 21.9113 165.478 22.5635C164.354 23.195 163.433 24.1323 162.822 25.2666C162.172 26.4984 161.845 27.875 161.872 29.2674C161.872 30.7757 162.189 32.1272 162.811 33.2841C163.415 34.4262 164.336 35.3694 165.463 35.9999ZM185.077 21.9954V24.5418H181.579V31.6873C181.579 32.5023 181.753 33.11 182.075 33.4804C182.396 33.8507 182.989 34.0374 183.836 34.0374C184.054 34.0387 184.271 34.0229 184.486 33.99C184.629 33.9661 184.774 33.9503 184.918 33.9425H185.077V36.5016L184.941 36.5269C184.35 36.6322 183.751 36.6851 183.151 36.6851C181.786 36.6851 180.751 36.3971 180.082 35.8432C179.413 35.2893 178.99 34.6531 178.832 33.9551C178.672 33.2227 178.595 32.4748 178.601 31.7252V24.5481H176.447V23.7093L176.486 23.6634L181.016 18.3554H181.571V21.9954H185.077ZM114.926 45.6443C113.91 45.6277 112.91 45.8976 112.041 46.4229C111.309 46.8699 110.714 47.5108 110.324 48.2746C109.953 47.5235 109.38 46.891 108.668 46.4483C107.793 45.9052 106.78 45.6261 105.75 45.6443C104.876 45.6376 104.014 45.8492 103.242 46.2599C102.643 46.5786 102.123 47.0248 101.716 47.5672L101.558 46.0684H98.8562V60.6284H101.863V51.731C101.846 50.8398 102.159 49.9738 102.743 49.3001C103.32 48.6352 104.166 48.2664 105.046 48.2968C106.003 48.2968 106.722 48.5848 107.25 49.1751C107.779 49.7654 108.042 50.5994 108.042 51.6361V60.6253H111.012V51.7627C110.99 50.8612 111.304 49.9836 111.892 49.3001C112.47 48.6354 113.266 48.2968 114.266 48.2968C115.181 48.2968 115.904 48.5705 116.418 49.1118C116.933 49.653 117.199 50.5013 117.199 51.6361V60.6253H120.169V51.06C120.169 49.346 119.68 47.9976 118.712 47.0576C117.743 46.1175 116.46 45.6443 114.926 45.6443ZM132.566 46.3865C133.339 46.7805 134.011 47.3475 134.53 48.0435L134.731 46.0684H137.263V60.5936H134.414V58.4967C133.913 59.198 133.253 59.772 132.49 60.1726C131.45 60.7244 130.287 61.0047 129.109 60.9877C127.849 61.0076 126.608 60.6749 125.526 60.027C124.473 59.3801 123.626 58.447 123.083 57.3366C121.914 54.7911 121.928 51.8593 123.122 49.3254C123.686 48.2003 124.555 47.2565 125.629 46.6018C127.769 45.4061 130.356 45.3258 132.566 46.3865ZM134.199 53.244C134.199 54.7665 133.78 55.993 132.955 56.884C132.131 57.775 131.035 58.2292 129.695 58.2292C128.355 58.2292 127.304 57.775 126.501 56.8777C125.699 55.9803 125.286 54.7791 125.286 53.3136C125.286 51.8481 125.696 50.6438 126.501 49.7464C127.307 48.8491 128.4 48.4028 129.758 48.4028C131.077 48.4028 132.159 48.8443 132.969 49.7164C133.78 50.5884 134.199 51.7753 134.199 53.244ZM143.969 46.5559C144.699 46.138 145.53 45.9263 146.371 45.9434C146.835 45.9419 147.298 45.9843 147.754 46.07L147.887 46.0985V48.7098L147.692 48.675C147.369 48.6293 147.042 48.6092 146.714 48.6149C145.488 48.6149 144.53 48.9804 143.866 49.71C143.201 50.4396 142.862 51.4699 142.862 52.774V60.5936H139.855V46.0684H142.522L142.771 47.784C143.049 47.2718 143.463 46.8467 143.969 46.5559Z" fill="#2362FB"/>
<path d="M162.041 46.0684H158.296L151.991 52.6743V39.6272H148.989V60.5952H151.991V56.4725L154.634 53.7283L158.283 60.5082L158.331 60.5952H161.71L156.761 51.5443L162.041 46.0684V46.0684Z" fill="#2362FB"/>
<path fill-rule="evenodd" clip-rule="evenodd" d="M180.777 42.4221H181.334L181.337 46.0684H184.841V48.6149H181.337V55.7603C181.337 56.5754 181.509 57.1831 181.831 57.5534C182.152 57.9238 182.746 58.1105 183.592 58.1105C183.81 58.1118 184.027 58.0959 184.243 58.063C184.386 58.0391 184.531 58.0232 184.676 58.0156H184.835V60.5683L184.698 60.5936C184.108 60.6989 183.51 60.7518 182.91 60.7519C181.544 60.7519 180.509 60.4639 179.84 59.9099C179.17 59.356 178.748 58.7198 178.59 58.0219C178.43 57.2894 178.353 56.5416 178.359 55.792V48.6149H176.205V47.7761L176.246 47.7302L180.777 42.4221ZM172.881 56.1243C172.603 56.8406 172.087 57.4391 171.419 57.8193C170.658 58.2536 169.793 58.4724 168.917 58.4524C167.636 58.4524 166.574 58.0583 165.761 57.2812C164.982 56.5358 164.555 55.5404 164.484 54.3186H175.613L175.641 54.1904C175.743 53.6447 175.787 53.0899 175.773 52.535C175.794 51.2884 175.491 50.0576 174.894 48.963C174.323 47.9364 173.476 47.0896 172.449 46.5179C171.332 45.9158 170.078 45.6137 168.809 45.6411C167.492 45.6206 166.193 45.9453 165.041 46.5828C163.931 47.2112 163.026 48.145 162.431 49.2732C161.789 50.5075 161.466 51.8829 161.491 53.2741C161.491 54.7839 161.808 56.1338 162.415 57.2876C163.008 58.4253 163.913 59.3698 165.025 60.0096C166.208 60.6742 167.547 61.0107 168.904 60.9845C170.596 60.9845 172.098 60.5462 173.367 59.682C174.594 58.8849 175.463 57.6431 175.793 56.2177L175.839 56.0151H172.922L172.881 56.1243ZM164.514 52.057C164.588 50.9207 165 49.9996 165.742 49.3191C166.525 48.6022 167.551 48.2382 168.79 48.2382C169.955 48.2382 170.912 48.6006 171.631 49.3144C172.316 49.9965 172.688 50.9176 172.739 52.057H164.514Z" fill="#2362FB"/>
</svg>
