<svg width="31" height="30" viewBox="0 0 31 30" fill="none" xmlns="http://www.w3.org/2000/svg">
<path fill-rule="evenodd" clip-rule="evenodd" d="M0.799805 14.7456C0.799805 6.60308 7.40288 0 15.5454 0C23.6879 0 30.291 6.60308 30.291 14.7456C30.291 22.8881 23.6879 29.4912 15.5454 29.4912C7.40288 29.4912 0.799805 22.8881 0.799805 14.7456ZM7.66928 22.2912H11.2605V11.4869H7.66928V22.2912ZM9.465 10.0116H9.4416C8.2365 10.0116 7.4571 9.18202 7.4571 8.14522C7.4571 7.08502 8.26035 6.2784 9.48885 6.2784C10.7174 6.2784 11.4734 7.08502 11.4968 8.14522C11.4968 9.18202 10.7174 10.0116 9.465 10.0116ZM20.6189 22.2912H24.2097V16.0961C24.2097 12.7775 22.4381 11.2333 20.0753 11.2333C18.17 11.2333 17.3162 12.2805 16.8389 13.0167V11.4869H13.2479C13.295 12.5005 13.2479 22.2912 13.2479 22.2912H16.8389V16.2576C16.8389 15.9347 16.8621 15.6121 16.9571 15.3812C17.2167 14.7361 17.8076 14.0679 18.7996 14.0679C20.099 14.0679 20.6189 15.0586 20.6189 16.5112V22.2912Z" fill="#8FA0B2"/>
</svg>
