<svg width="30" height="30" viewBox="0 0 30 30" fill="none" xmlns="http://www.w3.org/2000/svg">
<path fill-rule="evenodd" clip-rule="evenodd" d="M30 15C30 23.2863 23.2863 30 15 30C6.71375 30 0 23.2863 0 15C0 6.71375 6.71375 0 15 0C23.2863 0 30 6.71375 30 15ZM21.3263 9.09875L6.86375 14.675C5.8725 15.0625 5.89 15.6112 6.69375 15.8663L10.3962 17.0212L18.985 11.6137C19.3837 11.3488 19.7537 11.4987 19.4513 11.765L12.5013 18.0438L12.235 21.86C12.6225 21.86 12.7913 21.6912 12.9913 21.4912L14.8 19.7487L18.55 22.5125C19.2337 22.9 19.7225 22.7 19.905 21.8775L22.3675 10.2762L22.3663 10.2775C22.5838 9.2625 21.9975 8.85625 21.3263 9.09875Z" fill="#8FA0B2"/>
</svg>
