<svg width="30" height="30" viewBox="0 0 30 30" fill="none" xmlns="http://www.w3.org/2000/svg">
<path fill-rule="evenodd" clip-rule="evenodd" d="M0 14.7456C0 6.60308 6.60308 0 14.7456 0C22.8881 0 29.4912 6.60308 29.4912 14.7456C29.4912 22.8881 22.8881 29.4912 14.7456 29.4912C6.60308 29.4912 0 22.8881 0 14.7456ZM21.4879 11.9345C21.4879 11.788 21.4848 11.6422 21.4783 11.4971C22.1391 11.0194 22.7135 10.4231 23.1665 9.7443C22.5601 10.0139 21.9076 10.1954 21.2229 10.2773C21.9218 9.85815 22.4581 9.1953 22.7113 8.40532C22.0572 8.793 21.3331 9.0747 20.5621 9.2268C19.9445 8.5689 19.0651 8.15738 18.0916 8.15738C16.2225 8.15738 14.7067 9.6732 14.7067 11.5416C14.7067 11.8071 14.7366 12.0654 14.7947 12.3134C11.9817 12.1718 9.48735 10.825 7.8183 8.77703C7.5276 9.2772 7.35997 9.85815 7.35997 10.4783C7.35997 11.6525 7.95735 12.6891 8.86613 13.2955C8.31083 13.2784 7.78928 13.1258 7.3332 12.8722C7.33275 12.8864 7.33275 12.9001 7.33275 12.9154V12.9155C7.33275 14.5543 8.49938 15.923 10.048 16.2331C9.76365 16.3107 9.4644 16.3523 9.15548 16.3523C8.9379 16.3523 8.72573 16.3307 8.5194 16.2911C8.9505 17.636 10.1997 18.6145 11.6813 18.6419C10.5228 19.5498 9.06345 20.0907 7.47765 20.0907C7.20473 20.0907 6.93517 20.0752 6.67035 20.0439C8.16817 21.004 9.9468 21.5642 11.8582 21.5642C18.0837 21.564 21.4879 16.4068 21.4879 11.9345Z" fill="#8FA0B2"/>
</svg>
