<svg width="9" height="10" viewBox="0 0 9 10" fill="none" xmlns="http://www.w3.org/2000/svg">
<path d="M5.2553 1.0059L5.25201 0.991854L5.25201 7.01424L7.28257 5.12102C7.38171 5.02832 7.516 4.97746 7.65696 4.97746C7.79791 4.97746 7.93126 5.02832 8.03063 5.12102L8.34605 5.41561C8.44519 5.50824 8.5 5.63168 8.5 5.76332C8.5 5.89502 8.44558 6.01854 8.34644 6.11117L4.87364 9.35651C4.77411 9.44951 4.64154 9.50036 4.50051 9.5C4.3587 9.50036 4.22605 9.44951 4.12668 9.35651L0.653559 6.11117C0.554502 6.01854 0.5 5.8951 0.5 5.76332C0.5 5.63168 0.55458 5.50824 0.653559 5.41561L0.968976 5.12102C1.06796 5.02832 1.20014 4.97746 1.34109 4.97746C1.48196 4.97746 1.60717 5.02832 1.70623 5.12102L3.74814 7.03561L3.74814 0.99917C3.74814 0.727926 3.99833 0.5 4.28846 0.5H4.73457C5.02469 0.5 5.2553 0.734658 5.2553 1.0059Z" fill="#FB6340"/>
</svg>
