<svg width="9" height="10" viewBox="0 0 9 10" fill="none" xmlns="http://www.w3.org/2000/svg">
<path d="M5.2553 8.9941L5.25201 9.00815L5.25201 2.98576L7.28257 4.87898C7.38171 4.97168 7.516 5.02254 7.65696 5.02254C7.79791 5.02254 7.93126 4.97168 8.03063 4.87898L8.34605 4.58439C8.44519 4.49176 8.5 4.36832 8.5 4.23668C8.5 4.10498 8.44558 3.98146 8.34644 3.88883L4.87364 0.64349C4.77411 0.55049 4.64154 0.499636 4.50051 0.500002C4.3587 0.499636 4.22605 0.55049 4.12668 0.64349L0.653559 3.88883C0.554502 3.98146 0.5 4.1049 0.5 4.23668C0.5 4.36832 0.55458 4.49176 0.653559 4.58439L0.968976 4.87898C1.06796 4.97168 1.20014 5.02254 1.34109 5.02254C1.48196 5.02254 1.60717 4.97168 1.70623 4.87898L3.74814 2.96439L3.74814 9.00083C3.74814 9.27207 3.99833 9.5 4.28846 9.5H4.73457C5.02469 9.5 5.2553 9.26534 5.2553 8.9941Z" fill="#2DCE89"/>
</svg>
